<svg width="22" height="21" viewBox="0 0 22 21" fill="none" xmlns="http://www.w3.org/2000/svg">
<g id="material-symbols:lock">
<path id="Vector" d="M5.75 19.25C5.26875 19.25 4.85663 19.0785 4.51363 18.7355C4.17063 18.3925 3.99942 17.9807 4 17.5V8.75C4 8.26875 4.1715 7.85663 4.5145 7.51363C4.8575 7.17063 5.26933 6.99942 5.75 7H6.625V5.25C6.625 4.03958 7.05171 3.00767 7.90513 2.15425C8.75854 1.30083 9.79017 0.874417 11 0.875001C12.2104 0.875001 13.2423 1.30171 14.0958 2.15513C14.9492 3.00854 15.3756 4.04017 15.375 5.25V7H16.25C16.7313 7 17.1434 7.1715 17.4864 7.5145C17.8294 7.8575 18.0006 8.26933 18 8.75V17.5C18 17.9813 17.8285 18.3934 17.4855 18.7364C17.1425 19.0794 16.7307 19.2506 16.25 19.25H5.75ZM11 14.875C11.4813 14.875 11.8934 14.7035 12.2364 14.3605C12.5794 14.0175 12.7506 13.6057 12.75 13.125C12.75 12.6438 12.5785 12.2316 12.2355 11.8886C11.8925 11.5456 11.4807 11.3744 11 11.375C10.5188 11.375 10.1066 11.5465 9.76363 11.8895C9.42063 12.2325 9.24942 12.6443 9.25 13.125C9.25 13.6063 9.4215 14.0184 9.7645 14.3614C10.1075 14.7044 10.5193 14.8756 11 14.875ZM8.375 7H13.625V5.25C13.625 4.52083 13.3698 3.90104 12.8594 3.39063C12.349 2.88021 11.7292 2.625 11 2.625C10.2708 2.625 9.65104 2.88021 9.14063 3.39063C8.63021 3.90104 8.375 4.52083 8.375 5.25V7Z" fill="#283C55"/>
</g>
</svg>
